<?xml version="1.0" encoding="UTF-8"?>
<svg id="Layer_2" data-name="Layer 2" xmlns="http://www.w3.org/2000/svg" viewBox="0 0 650.63 290.08">
  <defs>
    <style>
      .cls-1 {
        fill: #b58a1b;
        stroke-width: 0px;
      }
    </style>
  </defs>
  <g id="Layer_1-2" data-name="Layer 1">
    <path class="cls-1" d="m0,.22C26.77.22,53.54.58,80.29,0c8.56-.18,11.02,2.77,13.41,10.8,15.1,50.74,31.11,101.21,46.81,151.77,1.7,5.46,3.93,10.67,10.97,9.15,6.89-1.49,6.91-6.96,6.66-12.82-2.08-50.16-1.38-100.37-1.9-150.55-.07-6.58,1.88-8.43,8.47-8.3,21.77.42,43.55.1,65.33.19,10.78.04,10.92.16,10.93,11.39.08,67.08.1,134.16.1,201.24,0,22.21-.37,44.42-.1,66.63.09,7.04-.94,10.79-9.4,10.45-23.45-.94-47.01,1.44-70.37-2.31-25.34-4.07-46.27-16.54-63.9-34.69-13.39-13.79-21.99-30.47-28.02-48.66-12.67-38.18-25.45-76.32-38.6-114.32C21.2,62.59,11.01,35.46,1.26,8.18.38,5.71.4,2.92,0,.22Z"/>
    <path class="cls-1" d="m404.51,144.47c0-44.85.15-89.69-.15-134.54-.05-7.36,1.54-10.01,9.57-9.92,38.99.45,78-.17,116.99.35,25.51.34,50.44,4.7,72.74,18.02,26.52,15.85,39.49,40.32,44.89,70.21,4.85,26.87,1.02,52.65-9.32,76.91-8.93,20.94-24.09,38.22-45.86,47.39-14.83,6.24-29.94,11.13-46.54,12.93-16.7,1.82-33.23,1.73-49.83,1.82-7.29.04-9.73,2.4-9.05,9.33.39,4.04.08,8.15.04,12.22-.24,23.46-10.43,35.8-33.81,39.65-14.36,2.36-28.95.45-43.43.92-6.06.2-6.19-3.72-6.17-8.09.06-11.32.02-22.65.02-33.97,0-34.42,0-68.84,0-103.25h-.07Zm115.27-106.69c-19.97,16.87-42.96,51.08-47.28,73.05-5.77,29.34,4.18,59.7,43.29,61.92,19.13,1.09,34.8-6.86,43.4-27.38,9.12-21.77,2.21-41.03-7.61-60.07-8.64-16.76-19.35-32.18-31.8-47.52Z"/>
    <path class="cls-1" d="m365.19,144.77c0,44.85-.22,89.7.19,134.55.08,8.26-1.89,10.93-10.47,10.68-21.75-.63-43.53-.35-65.3-.11-5.72.06-8.58-1.56-7.98-7.65.27-2.69.04-5.43.04-8.15-.02-86.07-.05-172.15-.07-258.22,0-3.17.15-6.35-.01-9.51-.24-4.66,1.78-6.25,6.44-6.21,23.58.17,47.17.32,70.74-.03,8.66-.13,6.45,5.65,6.46,10.12.09,44.85.06,89.7.06,134.55h-.11Z"/>
    <path class="cls-1" d="m512.63,58.6c.48,7.03-.5,11.35-2.57,15.48-7.26,14.44-8.33,30.37-10.6,45.95-.79,5.41-.9,10.8-8.01,9.32-5.62-1.16-10.17-3.58-9.07-11.77,3.07-22.7,12.96-41.5,30.25-58.99Z"/>
  </g>
</svg>